<svg width="49" height="28" viewBox="0 0 49 28" fill="none" xmlns="http://www.w3.org/2000/svg">
<rect width="49" height="28" rx="14" fill="#F1F1F1"/>
<g clip-path="url(#clip0_1461_952)">
<path d="M34.1944 8.35518L27.6846 4.603C27.6846 4.603 26.6533 4 25.0079 4C23.2945 4 22.3018 4.62138 22.3018 4.62138L16.2718 8.07207L25.4454 13.3446V24L31.4827 20.553C31.4827 20.553 32.5619 19.9573 33.3818 18.5418C34.1043 17.2953 34.1944 16.0893 34.1944 16.0893V8.35518ZM24.3773 10.0906C24.3773 10.0906 25.723 9.84245 26.861 10.4988C27.999 11.1551 28.67 11.5411 28.67 11.5411C28.67 11.5411 28.6718 12.4548 28.6718 13.8208C28.6718 14.9146 27.7453 16.0489 27.7453 16.0489L27.7471 12.0357L24.3773 10.0906ZM29.7124 18.8929L27.7471 20.0199V18.9628L29.2767 18.0877C30.7327 17.038 30.9735 15.49 30.9735 14.9532L30.968 10.1991L26.7966 7.79814C26.7966 7.79814 26.1624 7.38266 25.0226 7.38266C23.8828 7.38266 23.2614 7.76689 23.2614 7.76689L21.7962 8.60888L20.8715 8.0739L22.8956 6.91755C22.8956 6.91755 23.6879 6.47817 25.0152 6.47817C26.2341 6.47817 27.1827 6.95432 27.1827 6.95432L31.8927 9.67515L31.8872 14.8631C31.9203 15.661 31.5489 17.6097 29.7124 18.8929Z" fill="#005F9E"/>
<path d="M15.8086 11.5227L22.2393 15.2124L22.2338 16.3118L18.5754 14.2142L16.2737 15.5231L22.2301 18.9554L22.2338 20.0143L15.8527 16.343C15.8693 16.7732 16.259 18.0987 17.0054 19.1246C17.7628 20.1632 18.6269 20.6045 18.6269 20.6045L24.5245 24V13.8741L15.8141 8.87177L15.8086 11.5227Z" fill="#005F9E"/>
</g>
<defs>
<clipPath id="clip0_1461_952">
<rect width="20" height="20" fill="white" transform="translate(15 4)"/>
</clipPath>
</defs>
</svg>
