<svg width="42" height="24" viewBox="0 0 42 24" fill="none" xmlns="http://www.w3.org/2000/svg">
<rect width="42" height="24" rx="12" fill="#F1F1F1"/>
<g clip-path="url(#clip0_311_2883)">
<path d="M29.3061 7.16172L23.7263 3.94557C23.7263 3.94557 22.8423 3.42871 21.432 3.42871C19.9634 3.42871 19.1124 3.96132 19.1124 3.96132L13.9439 6.91905L21.807 11.4384V20.5716L26.9819 17.617C26.9819 17.617 27.9068 17.1064 28.6096 15.8931C29.2289 14.8247 29.3061 13.791 29.3061 13.791V7.16172ZM20.8915 8.64925C20.8915 8.64925 22.045 8.43652 23.0204 8.99908C23.9958 9.56163 24.5709 9.89254 24.5709 9.89254C24.5709 9.89254 24.5725 10.6757 24.5725 11.8465C24.5725 12.7841 23.7783 13.7563 23.7783 13.7563L23.7799 10.3164L20.8915 8.64925ZM25.4644 16.1941L23.7799 17.16V16.2539L25.0909 15.5039C26.3389 14.6041 26.5454 13.2773 26.5454 12.8172L26.5406 8.74222L22.9652 6.68426C22.9652 6.68426 22.4216 6.32814 21.4446 6.32814C20.4676 6.32814 19.935 6.65747 19.935 6.65747L18.6791 7.37918L17.8865 6.92063L19.6214 5.92947C19.6214 5.92947 20.3006 5.55286 21.4383 5.55286C22.483 5.55286 23.2961 5.96098 23.2961 5.96098L27.3333 8.29313L27.3285 12.74C27.3569 13.4239 27.0386 15.0942 25.4644 16.1941Z" fill="#005F9E"/>
<path d="M13.5469 9.87678L19.0589 13.0394L19.0542 13.9817L15.9184 12.1837L13.9455 13.3057L19.0511 16.2476L19.0542 17.1553L13.5847 14.0085C13.5989 14.3772 13.9329 15.5133 14.5727 16.3926C15.2219 17.2829 15.9625 17.6611 15.9625 17.6611L21.0176 20.5716V11.8922L13.5516 7.60451L13.5469 9.87678Z" fill="#005F9E"/>
</g>
<defs>
<clipPath id="clip0_311_2883">
<rect width="17.1429" height="17.1429" fill="white" transform="translate(12.8555 3.42871)"/>
</clipPath>
</defs>
</svg>
