<?xml version="1.0" standalone="no"?>
<!DOCTYPE svg PUBLIC "-//W3C//DTD SVG 20010904//EN"
 "http://www.w3.org/TR/2001/REC-SVG-20010904/DTD/svg10.dtd">
<svg version="1.0" xmlns="http://www.w3.org/2000/svg"
 width="150.000000pt" height="150.000000pt" viewBox="0 0 150.000000 150.000000"
 preserveAspectRatio="xMidYMid meet">
<metadata>
Created by potrace 1.14, written by Peter Selinger 2001-2017
</metadata>
<g transform="translate(0.000000,150.000000) scale(0.100000,-0.100000)"
fill="#000000" stroke="none">
<path d="M715 1486 c-11 -7 -38 -24 -60 -36 -22 -12 -158 -90 -303 -173 l-262
-150 0 -377 0 -377 302 -173 c167 -95 314 -179 328 -187 25 -14 38 -8 345 168
176 100 324 186 329 190 7 6 12 574 7 730 -1 26 -73 70 -566 349 -100 57 -93
55 -120 36z m-127 -277 c100 -56 153 -92 145 -99 -4 -4 -74 -48 -154 -99
l-147 -91 0 -303 c-1 -166 -1 -314 -1 -328 -1 -27 -2 -26 -136 50 l-134 76 -1
335 0 335 162 91 161 92 34 -19 c18 -10 50 -28 71 -40z m318 -185 c82 -47 153
-89 158 -94 4 -5 8 -91 8 -191 0 -207 9 -183 -88 -239 -172 -100 -225 -130
-231 -130 -5 0 -7 163 -6 362 2 411 2 378 6 378 2 0 71 -39 153 -86z"/>
</g>
</svg>
