<svg width="20" height="20" viewBox="0 0 20 20" fill="none" xmlns="http://www.w3.org/2000/svg">
<mask id="path-1-inside-1_1912_1276" fill="white">
<path fill-rule="evenodd" clip-rule="evenodd" d="M16.4399 7.77358C16.4802 7.73333 16.5123 7.68551 16.5341 7.63286C16.5559 7.58022 16.5672 7.52378 16.5672 7.46679C16.5672 7.40979 16.5559 7.35336 16.5341 7.30071C16.5123 7.24807 16.4802 7.20025 16.4399 7.16L12.9734 3.69348C12.892 3.61212 12.7816 3.56641 12.6666 3.56641C12.5515 3.56641 12.4412 3.61212 12.3598 3.69348C12.2784 3.77485 12.2327 3.8852 12.2327 4.00027C12.2327 4.11534 12.2784 4.22569 12.3598 4.30706L15.0871 7.03347H6.60017C6.02556 7.03347 5.47448 7.26174 5.06817 7.66805C4.66186 8.07436 4.43359 8.62544 4.43359 9.20005L4.43359 16.1331C4.43359 16.248 4.47925 16.3582 4.56051 16.4395C4.64177 16.5208 4.75199 16.5664 4.86691 16.5664C4.98183 16.5664 5.09205 16.5208 5.17331 16.4395C5.25457 16.3582 5.30022 16.248 5.30022 16.1331V9.20005C5.30022 8.85528 5.43718 8.52464 5.68097 8.28085C5.92476 8.03706 6.2554 7.9001 6.60017 7.9001H15.0871L12.3598 10.6265C12.2784 10.7079 12.2327 10.8182 12.2327 10.9333C12.2327 11.0484 12.2784 11.1587 12.3598 11.2401C12.4412 11.3215 12.5515 11.3672 12.6666 11.3672C12.7816 11.3672 12.892 11.3215 12.9734 11.2401L16.4399 7.77358Z"/>
</mask>
<path fill-rule="evenodd" clip-rule="evenodd" d="M16.4399 7.77358C16.4802 7.73333 16.5123 7.68551 16.5341 7.63286C16.5559 7.58022 16.5672 7.52378 16.5672 7.46679C16.5672 7.40979 16.5559 7.35336 16.5341 7.30071C16.5123 7.24807 16.4802 7.20025 16.4399 7.16L12.9734 3.69348C12.892 3.61212 12.7816 3.56641 12.6666 3.56641C12.5515 3.56641 12.4412 3.61212 12.3598 3.69348C12.2784 3.77485 12.2327 3.8852 12.2327 4.00027C12.2327 4.11534 12.2784 4.22569 12.3598 4.30706L15.0871 7.03347H6.60017C6.02556 7.03347 5.47448 7.26174 5.06817 7.66805C4.66186 8.07436 4.43359 8.62544 4.43359 9.20005L4.43359 16.1331C4.43359 16.248 4.47925 16.3582 4.56051 16.4395C4.64177 16.5208 4.75199 16.5664 4.86691 16.5664C4.98183 16.5664 5.09205 16.5208 5.17331 16.4395C5.25457 16.3582 5.30022 16.248 5.30022 16.1331V9.20005C5.30022 8.85528 5.43718 8.52464 5.68097 8.28085C5.92476 8.03706 6.2554 7.9001 6.60017 7.9001H15.0871L12.3598 10.6265C12.2784 10.7079 12.2327 10.8182 12.2327 10.9333C12.2327 11.0484 12.2784 11.1587 12.3598 11.2401C12.4412 11.3215 12.5515 11.3672 12.6666 11.3672C12.7816 11.3672 12.892 11.3215 12.9734 11.2401L16.4399 7.77358Z" fill="#393838"/>
<path d="M16.4399 7.77358L15.7337 7.06558L15.7328 7.06647L16.4399 7.77358ZM16.4399 7.16L15.7328 7.86711L15.7337 7.868L16.4399 7.16ZM12.9734 3.69348L13.6805 2.98637L12.9734 3.69348ZM12.3598 3.69348L11.6527 2.98637L12.3598 3.69348ZM12.2327 4.00027H13.2327H12.2327ZM12.3598 4.30706L11.6527 5.01416L11.6528 5.01427L12.3598 4.30706ZM15.0871 7.03347V8.03347H17.5018L15.7941 6.32625L15.0871 7.03347ZM4.43359 16.1331H3.43359H4.43359ZM5.30022 16.1331H6.30022H5.30022ZM15.0871 7.9001L15.7941 8.60732L17.5018 6.9001H15.0871V7.9001ZM12.3598 10.6265L11.6528 9.9193L11.6527 9.91942L12.3598 10.6265ZM12.2327 10.9333H11.2327H12.2327ZM12.3598 11.2401L11.6527 11.9472L12.3598 11.2401ZM12.6666 11.3672V12.3672V11.3672ZM12.9734 11.2401L13.6805 11.9472L12.9734 11.2401ZM17.1461 8.48158C17.2796 8.34843 17.3855 8.19027 17.4577 8.01613L15.6105 7.2496C15.639 7.18075 15.6809 7.11822 15.7337 7.06558L17.1461 8.48158ZM17.4577 8.01613C17.53 7.842 17.5672 7.65532 17.5672 7.46679H15.5672C15.5672 7.39225 15.5819 7.31845 15.6105 7.2496L17.4577 8.01613ZM17.5672 7.46679C17.5672 7.27826 17.53 7.09158 17.4577 6.91745L15.6105 7.68398C15.5819 7.61514 15.5672 7.54133 15.5672 7.46679H17.5672ZM17.4577 6.91745C17.3855 6.74332 17.2796 6.58515 17.1461 6.452L15.7337 7.868C15.6809 7.81536 15.639 7.75282 15.6105 7.68398L17.4577 6.91745ZM17.147 6.4529L13.6805 2.98637L12.2663 4.40059L15.7328 7.86711L17.147 6.4529ZM13.6805 2.98637C13.4116 2.71747 13.0469 2.56641 12.6666 2.56641V4.56641C12.5164 4.56641 12.3724 4.50676 12.2663 4.40059L13.6805 2.98637ZM12.6666 2.56641C12.2863 2.56641 11.9216 2.71747 11.6527 2.98637L13.0669 4.40059C12.9607 4.50676 12.8167 4.56641 12.6666 4.56641V2.56641ZM11.6527 2.98637C11.3838 3.25528 11.2327 3.61999 11.2327 4.00027H13.2327C13.2327 4.15042 13.1731 4.29442 13.0669 4.40059L11.6527 2.98637ZM11.2327 4.00027C11.2327 4.38055 11.3838 4.74526 11.6527 5.01416L13.0669 3.59995C13.1731 3.70612 13.2327 3.85012 13.2327 4.00027H11.2327ZM11.6528 5.01427L14.3801 7.74069L15.7941 6.32625L13.0668 3.59984L11.6528 5.01427ZM15.0871 6.03347H6.60017V8.03347H15.0871V6.03347ZM6.60017 6.03347C5.76034 6.03347 4.95491 6.36709 4.36106 6.96094L5.77528 8.37516C5.99405 8.15638 6.29077 8.03347 6.60017 8.03347V6.03347ZM4.36106 6.96094C3.76721 7.55479 3.43359 8.36022 3.43359 9.20005H5.43359C5.43359 8.89065 5.5565 8.59393 5.77528 8.37516L4.36106 6.96094ZM3.43359 9.20005L3.43359 16.1331H5.43359V9.20005H3.43359ZM3.43359 16.1331C3.43359 16.5132 3.5846 16.8778 3.8534 17.1466L5.26762 15.7324C5.37389 15.8387 5.43359 15.9828 5.43359 16.1331H3.43359ZM3.8534 17.1466C4.1222 17.4154 4.48677 17.5664 4.86691 17.5664V15.5664C5.0172 15.5664 5.16134 15.6261 5.26762 15.7324L3.8534 17.1466ZM4.86691 17.5664C5.24705 17.5664 5.61162 17.4154 5.88042 17.1466L4.4662 15.7324C4.57248 15.6261 4.71662 15.5664 4.86691 15.5664V17.5664ZM5.88042 17.1466C6.14922 16.8778 6.30022 16.5132 6.30022 16.1331H4.30022C4.30022 15.9828 4.35993 15.8387 4.4662 15.7324L5.88042 17.1466ZM6.30022 16.1331V9.20005H4.30022V16.1331H6.30022ZM6.30022 9.20005C6.30022 9.1205 6.33182 9.04421 6.38808 8.98796L4.97386 7.57374C4.54254 8.00507 4.30022 8.59007 4.30022 9.20005H6.30022ZM6.38808 8.98796C6.44433 8.93171 6.52062 8.9001 6.60017 8.9001V6.9001C5.99018 6.9001 5.40518 7.14242 4.97386 7.57374L6.38808 8.98796ZM6.60017 8.9001H15.0871V6.9001H6.60017V8.9001ZM14.3801 7.19289L11.6528 9.9193L13.0668 11.3337L15.7941 8.60732L14.3801 7.19289ZM11.6527 9.91942C11.3838 10.1883 11.2327 10.553 11.2327 10.9333H13.2327C13.2327 11.0835 13.1731 11.2275 13.0669 11.3336L11.6527 9.91942ZM11.2327 10.9333C11.2327 11.3136 11.3838 11.6783 11.6527 11.9472L13.0669 10.533C13.1731 10.6392 13.2327 10.7832 13.2327 10.9333H11.2327ZM11.6527 11.9472C11.9216 12.2161 12.2863 12.3672 12.6666 12.3672V10.3672C12.8167 10.3672 12.9607 10.4268 13.0669 10.533L11.6527 11.9472ZM12.6666 12.3672C13.0469 12.3672 13.4116 12.2161 13.6805 11.9472L12.2663 10.533C12.3724 10.4268 12.5164 10.3672 12.6666 10.3672V12.3672ZM13.6805 11.9472L17.147 8.48068L15.7328 7.06647L12.2663 10.533L13.6805 11.9472Z" fill="#393838" mask="url(#path-1-inside-1_1912_1276)"/>
</svg>
