<svg width="20" height="20" viewBox="0 0 20 20" fill="none" xmlns="http://www.w3.org/2000/svg">
<mask id="path-1-inside-1_1912_1268" fill="white">
<path fill-rule="evenodd" clip-rule="evenodd" d="M12.646 3.146C12.6924 3.09944 12.7476 3.06249 12.8084 3.03729C12.8691 3.01208 12.9342 2.99911 13 2.99911C13.0658 2.99911 13.1309 3.01208 13.1916 3.03729C13.2524 3.06249 13.3076 3.09944 13.354 3.146L17.354 7.146C17.4479 7.23989 17.5006 7.36722 17.5006 7.5C17.5006 7.63278 17.4479 7.76011 17.354 7.854C17.2601 7.94789 17.1328 8.00063 17 8.00063C16.8672 8.00063 16.7399 7.94789 16.646 7.854L13.5 4.707V14.5C13.5 15.163 13.2366 15.7989 12.7678 16.2678C12.2989 16.7366 11.663 17 11 17H3C2.86739 17 2.74021 16.9473 2.64645 16.8536C2.55268 16.7598 2.5 16.6326 2.5 16.5C2.5 16.3674 2.55268 16.2402 2.64645 16.1464C2.74021 16.0527 2.86739 16 3 16H11C11.3978 16 11.7794 15.842 12.0607 15.5607C12.342 15.2794 12.5 14.8978 12.5 14.5V4.707L9.354 7.854C9.26011 7.94789 9.13278 8.00063 9 8.00063C8.86722 8.00063 8.73989 7.94789 8.646 7.854C8.55211 7.76011 8.49937 7.63278 8.49937 7.5C8.49937 7.36722 8.55211 7.23989 8.646 7.146L12.646 3.146Z"/>
</mask>
<path fill-rule="evenodd" clip-rule="evenodd" d="M12.646 3.146C12.6924 3.09944 12.7476 3.06249 12.8084 3.03729C12.8691 3.01208 12.9342 2.99911 13 2.99911C13.0658 2.99911 13.1309 3.01208 13.1916 3.03729C13.2524 3.06249 13.3076 3.09944 13.354 3.146L17.354 7.146C17.4479 7.23989 17.5006 7.36722 17.5006 7.5C17.5006 7.63278 17.4479 7.76011 17.354 7.854C17.2601 7.94789 17.1328 8.00063 17 8.00063C16.8672 8.00063 16.7399 7.94789 16.646 7.854L13.5 4.707V14.5C13.5 15.163 13.2366 15.7989 12.7678 16.2678C12.2989 16.7366 11.663 17 11 17H3C2.86739 17 2.74021 16.9473 2.64645 16.8536C2.55268 16.7598 2.5 16.6326 2.5 16.5C2.5 16.3674 2.55268 16.2402 2.64645 16.1464C2.74021 16.0527 2.86739 16 3 16H11C11.3978 16 11.7794 15.842 12.0607 15.5607C12.342 15.2794 12.5 14.8978 12.5 14.5V4.707L9.354 7.854C9.26011 7.94789 9.13278 8.00063 9 8.00063C8.86722 8.00063 8.73989 7.94789 8.646 7.854C8.55211 7.76011 8.49937 7.63278 8.49937 7.5C8.49937 7.36722 8.55211 7.23989 8.646 7.146L12.646 3.146Z" fill="#393838"/>
<path d="M12.646 3.146L13.354 3.85221L13.3531 3.85311L12.646 3.146ZM13.354 3.146L12.6469 3.85311L12.646 3.85221L13.354 3.146ZM17.354 7.146L18.0611 6.43889L17.354 7.146ZM17 8.00063V7.00063V8.00063ZM16.646 7.854L15.9389 8.56111L15.9388 8.56099L16.646 7.854ZM13.5 4.707H12.5V2.29224L14.2072 4.00001L13.5 4.707ZM3 17V18V17ZM3 16V15V16ZM12.5 4.707L11.7928 4.00001L13.5 2.29224V4.707H12.5ZM9.354 7.854L10.0612 8.56099L10.0611 8.56111L9.354 7.854ZM9 8.00063V9.00063V8.00063ZM8.49937 7.5H7.49937H8.49937ZM8.646 7.146L7.93889 6.43889L8.646 7.146ZM11.938 2.43979C12.0773 2.3001 12.2429 2.18927 12.4251 2.11365L13.1916 3.96093C13.2524 3.93572 13.3076 3.89878 13.354 3.85221L11.938 2.43979ZM12.4251 2.11365C12.6073 2.03803 12.8027 1.99911 13 1.99911V3.99911C13.0658 3.99911 13.1309 3.98613 13.1916 3.96093L12.4251 2.11365ZM13 1.99911C13.1973 1.99911 13.3927 2.03803 13.5749 2.11365L12.8084 3.96093C12.8691 3.98613 12.9342 3.99911 13 3.99911V1.99911ZM13.5749 2.11365C13.7571 2.18927 13.9227 2.30009 14.062 2.43979L12.646 3.85221C12.6924 3.89878 12.7476 3.93572 12.8084 3.96093L13.5749 2.11365ZM14.0611 2.43889L18.0611 6.43889L16.6469 7.85311L12.6469 3.85311L14.0611 2.43889ZM18.0611 6.43889C18.3425 6.72032 18.5006 7.10201 18.5006 7.5H16.5006C16.5006 7.63244 16.5532 7.75946 16.6469 7.85311L18.0611 6.43889ZM18.5006 7.5C18.5006 7.89799 18.3425 8.27968 18.0611 8.56111L16.6469 7.14689C16.5532 7.24054 16.5006 7.36756 16.5006 7.5H18.5006ZM18.0611 8.56111C17.7797 8.84253 17.398 9.00063 17 9.00063V7.00063C16.8676 7.00063 16.7405 7.05324 16.6469 7.14689L18.0611 8.56111ZM17 9.00063C16.602 9.00063 16.2203 8.84253 15.9389 8.56111L17.3531 7.14689C17.2595 7.05324 17.1324 7.00063 17 7.00063V9.00063ZM15.9388 8.56099L12.7928 5.41399L14.2072 4.00001L17.3532 7.14701L15.9388 8.56099ZM14.5 4.707V14.5H12.5V4.707H14.5ZM14.5 14.5C14.5 15.4283 14.1313 16.3185 13.4749 16.9749L12.0607 15.5607C12.342 15.2794 12.5 14.8978 12.5 14.5H14.5ZM13.4749 16.9749C12.8185 17.6313 11.9283 18 11 18V16C11.3978 16 11.7794 15.842 12.0607 15.5607L13.4749 16.9749ZM11 18H3V16H11V18ZM3 18C2.60218 18 2.22064 17.842 1.93934 17.5607L3.35355 16.1464C3.25978 16.0527 3.13261 16 3 16V18ZM1.93934 17.5607C1.65803 17.2794 1.5 16.8978 1.5 16.5H3.5C3.5 16.3674 3.44732 16.2402 3.35355 16.1464L1.93934 17.5607ZM1.5 16.5C1.5 16.1022 1.65803 15.7206 1.93934 15.4393L3.35355 16.8536C3.44732 16.7598 3.5 16.6326 3.5 16.5H1.5ZM1.93934 15.4393C2.22064 15.158 2.60218 15 3 15V17C3.13261 17 3.25978 16.9473 3.35355 16.8536L1.93934 15.4393ZM3 15H11V17H3V15ZM11 15C11.1326 15 11.2598 14.9473 11.3536 14.8536L12.7678 16.2678C12.2989 16.7366 11.663 17 11 17V15ZM11.3536 14.8536C11.4473 14.7598 11.5 14.6326 11.5 14.5H13.5C13.5 15.163 13.2366 15.7989 12.7678 16.2678L11.3536 14.8536ZM11.5 14.5V4.707H13.5V14.5H11.5ZM13.2072 5.41399L10.0612 8.56099L8.64678 7.14701L11.7928 4.00001L13.2072 5.41399ZM10.0611 8.56111C9.77968 8.84253 9.39799 9.00063 9 9.00063V7.00063C8.86756 7.00063 8.74054 7.05324 8.64689 7.14689L10.0611 8.56111ZM9 9.00063C8.60201 9.00063 8.22032 8.84253 7.93889 8.56111L9.35311 7.14689C9.25946 7.05324 9.13244 7.00063 9 7.00063V9.00063ZM7.93889 8.56111C7.65747 8.27968 7.49937 7.89799 7.49937 7.5H9.49937C9.49937 7.36756 9.44676 7.24054 9.35311 7.14689L7.93889 8.56111ZM7.49937 7.5C7.49937 7.10201 7.65747 6.72032 7.93889 6.43889L9.35311 7.85311C9.44676 7.75946 9.49937 7.63244 9.49937 7.5H7.49937ZM7.93889 6.43889L11.9389 2.43889L13.3531 3.85311L9.35311 7.85311L7.93889 6.43889Z" fill="#393838" mask="url(#path-1-inside-1_1912_1268)"/>
</svg>
