<svg width="92" height="17" viewBox="0 0 92 17" fill="none" xmlns="http://www.w3.org/2000/svg">
<path d="M73.4678 7.41097V6.71793H72.5994V0.798513H73.4678V0.105469H71.8047V7.41097H73.4678Z" fill="#6A6B74"/>
<path d="M91.1982 7.41097V0.105469H89.5352V0.798513H90.4036V6.71793H89.5352V7.41097H91.1982Z" fill="#6A6B74"/>
<path d="M76.318 6.11304C77.0007 6.11304 77.5361 5.81963 77.8852 5.39497L77.2723 4.85448C77.055 5.12472 76.7447 5.31775 76.318 5.31775C75.6663 5.31775 75.1853 4.80043 75.1853 4.12097C75.1853 3.44151 75.6663 2.92419 76.318 2.92419C76.7447 2.92419 77.055 3.11722 77.2723 3.38746L77.8852 2.84698C77.5361 2.42231 77.0007 2.12891 76.318 2.12891C75.1853 2.12891 74.3164 3.00912 74.3164 4.12097C74.3164 5.23282 75.1853 6.11304 76.318 6.11304Z" fill="#6A6B74"/>
<path d="M80.016 6.11304C81.1642 6.11304 82.0331 5.23282 82.0331 4.12097C82.0331 3.00912 81.1642 2.12891 80.016 2.12891C78.8677 2.12891 77.9988 3.00912 77.9988 4.12097C77.9988 5.23282 78.8677 6.11304 80.016 6.11304ZM80.016 5.31775C79.341 5.31775 78.8677 4.80043 78.8677 4.12097C78.8677 3.44151 79.341 2.92419 80.016 2.92419C80.6987 2.92419 81.1564 3.44151 81.1564 4.12097C81.1564 4.80043 80.6987 5.31775 80.016 5.31775Z" fill="#6A6B74"/>
<path d="M85.041 6.05127H85.8944V3.77352C85.8944 3.68858 85.8866 3.60365 85.8788 3.51872C86.0573 3.1095 86.3599 2.91647 86.7245 2.91647C87.252 2.91647 87.5081 3.32569 87.5081 3.87389V6.05127H88.3615V3.77352C88.3615 2.80837 87.8339 2.12891 86.8486 2.12891C86.3211 2.12891 85.8556 2.33738 85.5763 2.70027C85.3358 2.35282 84.9556 2.12891 84.4281 2.12891C84.0634 2.12891 83.6833 2.24472 83.4117 2.54585V2.19068H82.5583V6.05127H83.4117V3.48783C83.5669 3.12494 83.8772 2.91647 84.2496 2.91647C84.7772 2.91647 85.041 3.32569 85.041 3.87389V6.05127Z" fill="#6A6B74"/>
<path d="M3.03715 15.9523H5.57132L10.3302 7.94318H3.75291L7.1576 2.28293H4.62342L0 10.0995H6.55791L3.03715 15.9523Z" fill="#6A6B74"/>
<path d="M7.26844 15.9523H9.64786L11.1181 12.9103H17.3084V15.9523H19.5718V2.28293H13.9037L7.26844 15.9523ZM15.1805 4.47772H17.3084V10.9658H12.0466L15.1805 4.47772Z" fill="#6A6B74"/>
<path d="M27.9649 16.1063C30.3056 16.1063 32.3368 15.2592 33.3621 14.0848V7.96244H28.2164L27.2685 10.0802H31.1375V13.0644C30.441 13.5842 29.3577 13.95 27.9649 13.95C25.2373 13.95 23.2254 11.8322 23.2254 9.11759C23.2254 6.40298 25.2373 4.2852 27.9649 4.2852C29.5705 4.2852 30.7119 4.86277 31.6211 5.88316L33.2847 4.47772C32.1047 3.07228 30.1896 2.12891 27.9649 2.12891C24.0572 2.12891 20.9427 5.19007 20.9427 9.11759C20.9427 13.0451 24.0572 16.1063 27.9649 16.1063Z" fill="#6A6B74"/>
<path d="M35.0289 15.9523H37.2729V2.28293H35.0289V15.9523Z" fill="#6A6B74"/>
<path d="M39.3233 15.9523H41.5673V4.38146H45.8232L42.7667 9.44488L46.9646 15.9523H49.4794L45.2429 9.42563L49.4987 2.28293H39.3233V15.9523Z" fill="#6A6B74"/>
<path d="M55.5996 16.1063C58.4239 16.1063 60.9581 14.5276 62.0995 11.6974L64.1307 16.1063L70.5145 2.28293H68.019L64.1307 10.9851L62.0801 6.40298C60.9388 3.88089 58.5594 2.12891 55.5996 2.12891C51.6919 2.12891 48.5774 5.19007 48.5774 9.11759C48.5774 13.0451 51.6919 16.1063 55.5996 16.1063ZM55.5996 13.95C52.872 13.95 50.8601 11.8322 50.8601 9.11759C50.8601 6.40298 52.872 4.2852 55.5996 4.2852C58.3079 4.2852 60.3197 6.40298 60.3197 9.11759C60.3197 11.8322 58.3079 13.95 55.5996 13.95Z" fill="#6A6B74"/>
</svg>
