<svg width="24" height="24" viewBox="0 0 24 24" fill="none" xmlns="http://www.w3.org/2000/svg">
<path fill-rule="evenodd" clip-rule="evenodd" d="M6.98998 4.89006C10.3257 4.62909 13.6766 4.62909 17.0123 4.89006L19.253 5.06536C20.501 5.16301 21.5221 6.0984 21.7284 7.33317C22.2446 10.4227 22.2446 13.5764 21.7284 16.6659C21.5221 17.9007 20.501 18.8361 19.253 18.9337L17.0123 19.109C13.6766 19.37 10.3256 19.37 6.98998 19.109L4.74928 18.9337C3.50121 18.8361 2.48018 17.9007 2.27387 16.6659C1.75767 13.5764 1.75767 10.4227 2.27387 7.33317C2.48018 6.0984 3.50121 5.16301 4.74928 5.06536L6.98998 4.89006ZM10.0011 14.4697V9.5294C10.0011 9.29621 10.2555 9.15218 10.4554 9.27215L14.5724 11.7423C14.7666 11.8588 14.7666 12.1403 14.5724 12.2568L10.4554 14.7269C10.2555 14.8469 10.0011 14.7029 10.0011 14.4697Z" fill="#197ACF"/>
</svg>
