<svg width="24" height="24" viewBox="0 0 24 24" fill="none" xmlns="http://www.w3.org/2000/svg">
<path d="M12.0007 8.74956C10.2057 8.74956 8.75067 10.2046 8.75067 11.9996C8.75067 13.7945 10.2057 15.2496 12.0007 15.2496C13.7956 15.2496 15.2507 13.7945 15.2507 11.9996C15.2507 10.2046 13.7956 8.74956 12.0007 8.74956Z" fill="#197ACF"/>
<path fill-rule="evenodd" clip-rule="evenodd" d="M6.77021 3.08103C10.2183 2.69565 13.783 2.69565 17.2312 3.08103C19.1296 3.2932 20.6607 4.78898 20.8836 6.69403C21.2958 10.219 21.2958 13.7801 20.8836 17.3051C20.6607 19.2101 19.1296 20.7059 17.2312 20.9181C13.783 21.3035 10.2183 21.3035 6.77021 20.9181C4.87181 20.7059 3.34062 19.2101 3.1178 17.3051C2.70552 13.7801 2.70552 10.219 3.1178 6.69403C3.34062 4.78898 4.87181 3.2932 6.77021 3.08103ZM17.0007 5.99956C16.4484 5.99956 16.0007 6.44727 16.0007 6.99956C16.0007 7.55184 16.4484 7.99956 17.0007 7.99956C17.553 7.99956 18.0007 7.55184 18.0007 6.99956C18.0007 6.44727 17.553 5.99956 17.0007 5.99956ZM7.25067 11.9996C7.25067 9.3762 9.37732 7.24956 12.0007 7.24956C14.624 7.24956 16.7507 9.3762 16.7507 11.9996C16.7507 14.6229 14.624 16.7496 12.0007 16.7496C9.37732 16.7496 7.25067 14.6229 7.25067 11.9996Z" fill="#197ACF"/>
</svg>
