<svg width="20" height="20" viewBox="0 0 20 20" fill="none" xmlns="http://www.w3.org/2000/svg">
<mask id="path-1-inside-1_311_3012" fill="white">
<path fill-rule="evenodd" clip-rule="evenodd" d="M12.7928 16.0063C12.8331 16.0466 12.8809 16.0787 12.9335 16.1005C12.9862 16.1224 13.0426 16.1336 13.0996 16.1336C13.1566 16.1336 13.213 16.1224 13.2657 16.1005C13.3183 16.0787 13.3662 16.0466 13.4064 16.0063L16.8729 12.5398C16.9543 12.4584 17 12.3481 17 12.233C17 12.1179 16.9543 12.0076 16.8729 11.9262C16.7916 11.8448 16.6812 11.7991 16.5661 11.7991C16.4511 11.7991 16.3407 11.8448 16.2594 11.9262L13.5329 14.6535V6.16658C13.5329 5.59196 13.3047 5.04089 12.8984 4.63458C12.492 4.22826 11.941 4 11.3664 4H4.43332C4.31839 4 4.20818 4.04565 4.12691 4.12692C4.04565 4.20818 4 4.31839 4 4.43332C4 4.54824 4.04565 4.65845 4.12691 4.73972C4.20818 4.82098 4.31839 4.86663 4.43332 4.86663H11.3664C11.7111 4.86663 12.0418 5.00359 12.2856 5.24738C12.5293 5.49116 12.6663 5.82181 12.6663 6.16658V14.6535L9.93988 11.9262C9.85852 11.8448 9.74816 11.7991 9.6331 11.7991C9.51803 11.7991 9.40767 11.8448 9.32631 11.9262C9.24494 12.0076 9.19923 12.1179 9.19923 12.233C9.19923 12.3481 9.24494 12.4584 9.32631 12.5398L12.7928 16.0063Z"/>
</mask>
<path fill-rule="evenodd" clip-rule="evenodd" d="M12.7928 16.0063C12.8331 16.0466 12.8809 16.0787 12.9335 16.1005C12.9862 16.1224 13.0426 16.1336 13.0996 16.1336C13.1566 16.1336 13.213 16.1224 13.2657 16.1005C13.3183 16.0787 13.3662 16.0466 13.4064 16.0063L16.8729 12.5398C16.9543 12.4584 17 12.3481 17 12.233C17 12.1179 16.9543 12.0076 16.8729 11.9262C16.7916 11.8448 16.6812 11.7991 16.5661 11.7991C16.4511 11.7991 16.3407 11.8448 16.2594 11.9262L13.5329 14.6535V6.16658C13.5329 5.59196 13.3047 5.04089 12.8984 4.63458C12.492 4.22826 11.941 4 11.3664 4H4.43332C4.31839 4 4.20818 4.04565 4.12691 4.12692C4.04565 4.20818 4 4.31839 4 4.43332C4 4.54824 4.04565 4.65845 4.12691 4.73972C4.20818 4.82098 4.31839 4.86663 4.43332 4.86663H11.3664C11.7111 4.86663 12.0418 5.00359 12.2856 5.24738C12.5293 5.49116 12.6663 5.82181 12.6663 6.16658V14.6535L9.93988 11.9262C9.85852 11.8448 9.74816 11.7991 9.6331 11.7991C9.51803 11.7991 9.40767 11.8448 9.32631 11.9262C9.24494 12.0076 9.19923 12.1179 9.19923 12.233C9.19923 12.3481 9.24494 12.4584 9.32631 12.5398L12.7928 16.0063Z" fill="#197ACF"/>
<path d="M12.7928 16.0063L13.5008 15.3001L13.4999 15.2992L12.7928 16.0063ZM13.4064 16.0063L12.6993 15.2992L12.6984 15.3001L13.4064 16.0063ZM16.8729 12.5398L17.58 13.2469L16.8729 12.5398ZM16.8729 11.9262L17.58 11.2191L16.8729 11.9262ZM16.5661 11.7991V12.7991V11.7991ZM16.2594 11.9262L15.5522 11.2191L15.5521 11.2192L16.2594 11.9262ZM13.5329 14.6535H12.5329V17.0682L14.2402 15.3605L13.5329 14.6535ZM4.43332 4V3V4ZM4.43332 4.86663V5.86663V4.86663ZM12.6663 14.6535L11.9591 15.3605L13.6663 17.0682V14.6535H12.6663ZM9.93988 11.9262L10.6471 11.2192L10.647 11.2191L9.93988 11.9262ZM9.6331 11.7991V10.7991V11.7991ZM9.32631 11.9262L8.6192 11.2191L9.32631 11.9262ZM9.19923 12.233H8.19923H9.19923ZM9.32631 12.5398L8.6192 13.2469L9.32631 12.5398ZM12.0848 16.7125C12.218 16.846 12.3761 16.9519 12.5503 17.0241L13.3168 15.1769C13.3857 15.2054 13.4482 15.2473 13.5008 15.3001L12.0848 16.7125ZM12.5503 17.0241C12.7244 17.0964 12.9111 17.1336 13.0996 17.1336V15.1336C13.1742 15.1336 13.248 15.1483 13.3168 15.1769L12.5503 17.0241ZM13.0996 17.1336C13.2881 17.1336 13.4748 17.0964 13.649 17.0241L12.8824 15.1769C12.9513 15.1483 13.0251 15.1336 13.0996 15.1336V17.1336ZM13.649 17.0241C13.8231 16.9519 13.9813 16.846 14.1144 16.7125L12.6984 15.3001C12.751 15.2473 12.8136 15.2054 12.8824 15.1769L13.649 17.0241ZM14.1135 16.7134L17.58 13.2469L16.1658 11.8327L12.6993 15.2992L14.1135 16.7134ZM17.58 13.2469C17.8489 12.978 18 12.6133 18 12.233H16C16 12.0828 16.0596 11.9388 16.1658 11.8327L17.58 13.2469ZM18 12.233C18 11.8527 17.8489 11.488 17.58 11.2191L16.1658 12.6333C16.0596 12.5271 16 12.3831 16 12.233H18ZM17.58 11.2191C17.3111 10.9502 16.9464 10.7991 16.5661 10.7991V12.7991C16.416 12.7991 16.272 12.7395 16.1658 12.6333L17.58 11.2191ZM16.5661 10.7991C16.1859 10.7991 15.8211 10.9502 15.5522 11.2191L16.9665 12.6333C16.8603 12.7395 16.7163 12.7991 16.5661 12.7991V10.7991ZM15.5521 11.2192L12.8257 13.9465L14.2402 15.3605L16.9666 12.6332L15.5521 11.2192ZM14.5329 14.6535V6.16658H12.5329V14.6535H14.5329ZM14.5329 6.16658C14.5329 5.32675 14.1993 4.52132 13.6055 3.92747L12.1912 5.34168C12.41 5.56046 12.5329 5.85718 12.5329 6.16658H14.5329ZM13.6055 3.92747C13.0116 3.33362 12.2062 3 11.3664 3V5C11.6758 5 11.9725 5.12291 12.1912 5.34168L13.6055 3.92747ZM11.3664 3H4.43332V5H11.3664V3ZM4.43332 3C4.05318 3 3.68861 3.15101 3.41981 3.41981L4.83402 4.83402C4.72775 4.9403 4.58361 5 4.43332 5V3ZM3.41981 3.41981C3.15101 3.68861 3 4.05318 3 4.43332H5C5 4.58361 4.9403 4.72775 4.83402 4.83402L3.41981 3.41981ZM3 4.43332C3 4.81345 3.15101 5.17802 3.41981 5.44682L4.83402 4.03261C4.9403 4.13888 5 4.28302 5 4.43332H3ZM3.41981 5.44682C3.68861 5.71562 4.05318 5.86663 4.43332 5.86663V3.86663C4.58361 3.86663 4.72775 3.92633 4.83402 4.03261L3.41981 5.44682ZM4.43332 5.86663H11.3664V3.86663H4.43332V5.86663ZM11.3664 5.86663C11.4459 5.86663 11.5222 5.89823 11.5784 5.95448L12.9927 4.54027C12.5613 4.10895 11.9763 3.86663 11.3664 3.86663V5.86663ZM11.5784 5.95448C11.6347 6.01073 11.6663 6.08703 11.6663 6.16658H13.6663C13.6663 5.55659 13.424 4.97159 12.9927 4.54027L11.5784 5.95448ZM11.6663 6.16658V14.6535H13.6663V6.16658H11.6663ZM13.3735 13.9465L10.6471 11.2192L9.23266 12.6332L11.9591 15.3605L13.3735 13.9465ZM10.647 11.2191C10.3781 10.9502 10.0134 10.7991 9.6331 10.7991V12.7991C9.48295 12.7991 9.33895 12.7395 9.23278 12.6333L10.647 11.2191ZM9.6331 10.7991C9.25281 10.7991 8.8881 10.9502 8.6192 11.2191L10.0334 12.6333C9.92724 12.7395 9.78324 12.7991 9.6331 12.7991V10.7991ZM8.6192 11.2191C8.3503 11.488 8.19923 11.8527 8.19923 12.233H10.1992C10.1992 12.3831 10.1396 12.5271 10.0334 12.6333L8.6192 11.2191ZM8.19923 12.233C8.19923 12.6133 8.3503 12.978 8.6192 13.2469L10.0334 11.8327C10.1396 11.9388 10.1992 12.0828 10.1992 12.233H8.19923ZM8.6192 13.2469L12.0857 16.7134L13.4999 15.2992L10.0334 11.8327L8.6192 13.2469Z" fill="#197ACF" mask="url(#path-1-inside-1_311_3012)"/>
</svg>
