<svg width="20" height="14" viewBox="0 0 20 14" fill="none" xmlns="http://www.w3.org/2000/svg">
<path d="M18.572 0.0830008L10.676 7.12C10.4928 7.28334 10.2559 7.3736 10.0105 7.3736C9.76506 7.3736 9.5282 7.28334 9.345 7.12L1.416 0.0870008C1.60529 0.0292673 1.8021 -5.21281e-05 2 8.21023e-07H18C18.1937 -0.000174671 18.3864 0.0277839 18.572 0.0830008ZM19.928 1.468C19.975 1.638 20 1.816 20 2V12C20 12.5304 19.7893 13.0391 19.4142 13.4142C19.0391 13.7893 18.5304 14 18 14H2C1.46957 14 0.96086 13.7893 0.585788 13.4142C0.210715 13.0391 1.20033e-06 12.5304 1.20033e-06 12V2C-0.00019648 1.81957 0.0240233 1.63994 0.0720012 1.466L8.014 8.614C8.56352 9.10374 9.27392 9.37436 10.01 9.37436C10.7461 9.37436 11.4565 9.10374 12.006 8.614L19.928 1.468Z" fill="url(#paint0_linear_1529_705)"/>
<defs>
<linearGradient id="paint0_linear_1529_705" x1="-7.32143" y1="18.25" x2="14.9148" y2="-7.95246" gradientUnits="userSpaceOnUse">
<stop stop-color="#30B3ED"/>
<stop offset="0.277625" stop-color="#299EE2"/>
<stop offset="0.556873" stop-color="#258BD7"/>
<stop offset="0.78005" stop-color="#44A1E0"/>
<stop offset="1" stop-color="#51A8E3"/>
</linearGradient>
</defs>
</svg>
